<svg id="visual" viewBox="0 0 1920 5400" width="1920" height="5400" xmlns="http://www.w3.org/2000/svg" xmlns:xlink="http://www.w3.org/1999/xlink" version="1.1"><path d="M0 1963L45.7 2088.7C91.3 2214.3 182.7 2465.7 274.2 2490.2C365.7 2514.7 457.3 2312.3 548.8 2186.3C640.3 2060.3 731.7 2010.7 823 2090.5C914.3 2170.3 1005.7 2379.7 1097 2381.7C1188.3 2383.7 1279.7 2178.3 1371.2 2132.7C1462.7 2087 1554.3 2201 1645.8 2313.2C1737.3 2425.3 1828.7 2535.7 1874.3 2590.8L1920 2646L1920 0L1874.3 0C1828.7 0 1737.3 0 1645.8 0C1554.3 0 1462.7 0 1371.2 0C1279.7 0 1188.3 0 1097 0C1005.7 0 914.3 0 823 0C731.7 0 640.3 0 548.8 0C457.3 0 365.7 0 274.2 0C182.7 0 91.3 0 45.7 0L0 0Z" fill="#fa7268"></path><path d="M0 1624L45.7 1629.7C91.3 1635.3 182.7 1646.7 274.2 1745.7C365.7 1844.7 457.3 2031.3 548.8 2101.5C640.3 2171.7 731.7 2125.3 823 2122C914.3 2118.7 1005.7 2158.3 1097 2156.8C1188.3 2155.3 1279.7 2112.7 1371.2 2060.8C1462.7 2009 1554.3 1948 1645.8 1946.3C1737.3 1944.7 1828.7 2002.3 1874.3 2031.2L1920 2060L1920 0L1874.3 0C1828.7 0 1737.3 0 1645.8 0C1554.3 0 1462.7 0 1371.2 0C1279.7 0 1188.3 0 1097 0C1005.7 0 914.3 0 823 0C731.7 0 640.3 0 548.8 0C457.3 0 365.7 0 274.2 0C182.7 0 91.3 0 45.7 0L0 0Z" fill="#f36567"></path><path d="M0 1755L45.7 1716.2C91.3 1677.3 182.7 1599.7 274.2 1649C365.7 1698.3 457.3 1874.7 548.8 1938.3C640.3 2002 731.7 1953 823 1951.2C914.3 1949.3 1005.7 1994.7 1097 1933C1188.3 1871.3 1279.7 1702.7 1371.2 1600.2C1462.7 1497.7 1554.3 1461.3 1645.8 1457.7C1737.3 1454 1828.7 1483 1874.3 1497.5L1920 1512L1920 0L1874.3 0C1828.7 0 1737.3 0 1645.8 0C1554.3 0 1462.7 0 1371.2 0C1279.7 0 1188.3 0 1097 0C1005.7 0 914.3 0 823 0C731.7 0 640.3 0 548.8 0C457.3 0 365.7 0 274.2 0C182.7 0 91.3 0 45.7 0L0 0Z" fill="#eb5967"></path><path d="M0 1627L45.7 1620.5C91.3 1614 182.7 1601 274.2 1575.5C365.7 1550 457.3 1512 548.8 1472.2C640.3 1432.3 731.7 1390.7 823 1395.7C914.3 1400.7 1005.7 1452.3 1097 1463.5C1188.3 1474.7 1279.7 1445.3 1371.2 1404.3C1462.7 1363.3 1554.3 1310.7 1645.8 1337.2C1737.3 1363.7 1828.7 1469.3 1874.3 1522.2L1920 1575L1920 0L1874.3 0C1828.7 0 1737.3 0 1645.8 0C1554.3 0 1462.7 0 1371.2 0C1279.7 0 1188.3 0 1097 0C1005.7 0 914.3 0 823 0C731.7 0 640.3 0 548.8 0C457.3 0 365.7 0 274.2 0C182.7 0 91.3 0 45.7 0L0 0Z" fill="#e34c67"></path><path d="M0 953L45.7 938.2C91.3 923.3 182.7 893.7 274.2 909C365.7 924.3 457.3 984.7 548.8 977.8C640.3 971 731.7 897 823 921.2C914.3 945.3 1005.7 1067.7 1097 1145.3C1188.3 1223 1279.7 1256 1371.2 1194.5C1462.7 1133 1554.3 977 1645.8 898.8C1737.3 820.7 1828.7 820.3 1874.3 820.2L1920 820L1920 0L1874.3 0C1828.7 0 1737.3 0 1645.8 0C1554.3 0 1462.7 0 1371.2 0C1279.7 0 1188.3 0 1097 0C1005.7 0 914.3 0 823 0C731.7 0 640.3 0 548.8 0C457.3 0 365.7 0 274.2 0C182.7 0 91.3 0 45.7 0L0 0Z" fill="#da3f67"></path><path d="M0 624L45.7 651.3C91.3 678.7 182.7 733.3 274.2 763.8C365.7 794.3 457.3 800.7 548.8 829.3C640.3 858 731.7 909 823 933.2C914.3 957.3 1005.7 954.7 1097 898.3C1188.3 842 1279.7 732 1371.2 676C1462.7 620 1554.3 618 1645.8 660.7C1737.3 703.3 1828.7 790.7 1874.3 834.3L1920 878L1920 0L1874.3 0C1828.7 0 1737.3 0 1645.8 0C1554.3 0 1462.7 0 1371.2 0C1279.7 0 1188.3 0 1097 0C1005.7 0 914.3 0 823 0C731.7 0 640.3 0 548.8 0C457.3 0 365.7 0 274.2 0C182.7 0 91.3 0 45.7 0L0 0Z" fill="#d03267"></path><path d="M0 598L45.7 565C91.3 532 182.7 466 274.2 411.3C365.7 356.7 457.3 313.3 548.8 311.3C640.3 309.3 731.7 348.7 823 337.5C914.3 326.3 1005.7 264.7 1097 276.7C1188.3 288.7 1279.7 374.3 1371.2 381.5C1462.7 388.7 1554.3 317.3 1645.8 299.7C1737.3 282 1828.7 318 1874.3 336L1920 354L1920 0L1874.3 0C1828.7 0 1737.3 0 1645.8 0C1554.3 0 1462.7 0 1371.2 0C1279.7 0 1188.3 0 1097 0C1005.7 0 914.3 0 823 0C731.7 0 640.3 0 548.8 0C457.3 0 365.7 0 274.2 0C182.7 0 91.3 0 45.7 0L0 0Z" fill="#c62368"></path></svg>